# xmcd
#
# Track frame offsets:
#	150
#	27035
#	53878
#	82738
#	133140
#	147825
#	171338
#	223753
#	248960
#	263013
#	283200
#
# Disc length: 4264 seconds
#
# Revision: 1
# Processed by: cddbd v1.5.2PL0 Copyright (c) Steve Scherf et al.
# Submitted via: audiograbber 1.83.01
#
DISCID=a110a60b
DTITLE=Luther Allison - Standing At The Crossroad
DYEAR=1999
DGENRE=Blues
TTITLE0=Love Me Papa
TTITLE1=Goin' Down (take 1)
TTITLE2=Blues With A Feeling
TTITLE3=It's Too Late
TTITLE4=Standing At The Crossroad
TTITLE5=Key To The Highway
TTITLE6=Last Night
TTITLE7=Feelin' So Good (take 1)
TTITLE8=Luther's Boogie
TTITLE9=Goin' Down (take 4)
TTITLE10=Feelin' So Good (take 2)
EXTD=
EXTT0=
EXTT1=
EXTT2=
EXTT3=
EXTT4=
EXTT5=
EXTT6=
EXTT7=
EXTT8=
EXTT9=
EXTT10=
PLAYORDER=
